PathFileType	3	(X/Y/Z)	D:\minhoCalibration\240510\subject5_KPNP\preferred\preferred08.trc
DataRate	CameraRate	NumFrames	NumMarkers	Units	OrigDataRate	OrigDataStartFrame	OrigNumFrames
200.0	200.0	33	10	mm	200.0	314	141	
Frame#	Time	Left_Ankle_Outer1			Left_Ankle_Inner1			Left_Knee_Outer1			Left_Knee_Inner1			Left_Wrist1			Right_Wrist1			Right_Knee_Inner1			Right_Knee_Outer1			Right_Ankle_Inner1			Right_Ankle_Outer1			
		X1	Y1	Z1	X2	Y2	Z2	X3	Y3	Z3	X4	Y4	Z4	X5	Y5	Z5	X6	Y6	Z6	X7	Y7	Z7	X8	Y8	Z8	X9	Y9	Z9	X10	Y10	Z10	
314	1.56	-444.1405	75.12738	-618.57788	-478.60684	85.427612	-580.15991	-288.64075	526.23218	-553.5033	-342.24167	509.83749	-477.47833	-331.5567	966.64349	-696.21759	-498.07614	1172.8055	-498.65533	-431.12329	966.05408	-58.116417	-490.51364	1032.2277	-68.767586	-452.71133	827.48047	356.4483	-543.61597	860.80542	355.37411
315	1.565	-444.12665	75.117996	-618.68573	-478.84677	85.496918	-579.38354	-289.24744	526.34283	-554.8269	-342.54147	510.05267	-478.4527	-329.47565	968.02289	-694.49451	-500.42706	1172.4758	-499.91721	-433.86517	959.8205	-59.787968	-493.18103	1026.5575	-69.557053	-459.52835	813.3902	352.66748	-550.974	847.0271	351.22519
316	1.57	-444.20523	75.097061	-618.70007	-478.81696	85.531639	-579.37616	-290.1517	526.49664	-555.78339	-343.10425	510.16122	-479.51312	-327.87781	968.74731	-692.83063	-502.21927	1172.6317	-501.32608	-436.53751	953.45166	-61.650349	-495.39502	1020.6592	-70.652542	-466.88654	798.90857	348.36246	-557.98682	832.7973	346.1669
317	1.575	-444.38953	75.122246	-618.64368	-479.23605	85.339233	-579.75293	-291.41434	526.58954	-556.30463	-344.14023	510.67691	-480.02383	-326.45657	969.3075	-691.36615	-503.80087	1173.1041	-502.79291	-439.26315	946.96967	-63.780926	-497.43045	1014.8987	-71.727684	-472.2305	784.64471	346.60037	-565.51044	818.2168	340.67371
318	1.58	-444.59406	75.199875	-618.38776	-478.99103	85.371033	-579.9613	-292.20975	526.99554	-556.90314	-345.30502	510.57321	-481.4639	-325.078	969.8161	-690.14404	-505.08212	1173.5908	-504.23212	-442.02921	940.29236	-65.980194	-499.51974	1009.2125	-72.66832	-482.54071	769.0036	337.58005	-573.17401	803.36511	334.68594
319	1.585	-444.83621	75.290825	-618.14539	-479.74585	85.277527	-579.02338	-293.59271	527.16418	-557.02521	-346.93265	511.3504	-481.06747	-323.90921	970.25525	-689.09875	-506.30618	1174.0361	-505.49042	-445.35699	933.40485	-68.272369	-501.12921	1003.3337	-73.973381	-490.75378	753.8736	332.06229	-581.23499	788.34003	328.28845
320	1.59	-445.20749	75.250999	-617.68158	-480.13693	85.214455	-578.51111	-294.69794	527.51892	-556.95508	-348.67075	511.81662	-481.34686	-322.73392	970.83441	-688.37061	-507.28625	1174.2863	-506.44421	-447.72815	926.38416	-70.453239	-502.77316	997.4339	-75.153625	-498.91504	738.1026	324.37088	-589.32184	773.09827	321.31653
321	1.595	-445.48001	75.323235	-617.3504	-480.18402	85.169884	-578.46265	-296.10248	527.66412	-556.604	-350.70825	512.203	-481.37878	-321.67651	971.52881	-687.91016	-508.20486	1174.301	-507.14438	-450.49197	919.34039	-72.605713	-504.07953	991.22571	-76.664818	-507.31577	722.29797	317.34875	-597.98267	757.72424	314.10062
322	1.6	-445.83728	75.328636	-616.97388	-480.3858	84.722343	-578.672	-297.10324	527.98083	-556.38849	-352.58954	512.52539	-481.74893	-320.70483	972.33783	-687.6488	-508.9671	1174.1129	-507.64828	-453.27469	912.24982	-74.620506	-505.96112	984.75977	-77.94873	-515.77155	706.26746	309.62131	-606.16345	742.2016	305.95377
323	1.605	-446.1756	75.439285	-616.66943	-480.86032	85.054306	-577.28741	-298.36673	528.13434	-556.05396	-354.61581	512.43317	-482.76736	-319.69897	973.35303	-687.56653	-509.67062	1173.7938	-507.95877	-455.90216	905.22943	-76.812584	-507.91724	978.28088	-79.433151	-524.25299	690.39471	301.56345	-614.75311	726.27893	297.6055
324	1.61	-446.38123	75.477272	-616.49231	-481.46527	84.593414	-577.64246	-299.43277	528.25433	-555.75476	-356.57996	513.15344	-482.22656	-318.70459	974.38654	-687.57251	-510.27985	1173.4514	-508.04507	-458.65054	898.15753	-78.945923	-510.1778	971.64697	-80.928474	-532.60748	674.34595	292.81317	-622.92401	710.15906	288.37781
325	1.615	-446.56894	75.426086	-616.29724	-481.76685	84.303474	-577.8009	-300.38196	528.45087	-555.69006	-358.30832	513.46252	-482.68442	-317.8017	975.41504	-687.51617	-510.96786	1173.0449	-507.90079	-461.3681	891.19098	-81.107941	-512.60748	964.82074	-82.559593	-540.27612	658.56512	283.0817	-631.11407	693.94757	278.60342
326	1.62	-446.71475	75.334229	-616.13934	-481.92929	84.420715	-577.26923	-301.27829	528.64221	-555.67267	-359.95319	513.71448	-483.20819	-316.81943	976.52612	-687.44598	-511.65961	1172.5127	-507.83075	-463.88388	884.17957	-83.489151	-515.27625	957.91949	-84.321289	-548.82623	642.10382	273.65131	-639.25702	677.73889	268.58768
327	1.625	-446.68527	75.315086	-616.08081	-481.87933	84.183517	-578.29083	-302.10199	528.86646	-555.97095	-361.48132	513.93579	-483.89764	-315.8334	977.59967	-687.32373	-512.53937	1172.016	-507.60074	-466.61819	877.2749	-85.802322	-518.10291	950.7644	-86.253502	-557.04523	625.69611	263.18906	-646.99921	661.41626	257.60818
328	1.63	-446.74445	75.327515	-616.11395	-481.80045	84.215668	-578.19806	-303.01627	529.03784	-556.47498	-362.73386	514.15204	-484.83374	-314.84305	978.76355	-686.97595	-513.54053	1171.339	-507.54297	-469.60535	870.26636	-88.404182	-521.04285	943.51874	-88.318367	-564.94458	608.68854	251.95512	-655.22736	644.98511	246.29506
329	1.635	-446.88431	75.222504	-616.0722	-481.78873	84.217247	-578.23975	-304.06735	529.24896	-557.07861	-363.73001	513.82928	-486.94394	-313.77231	979.98724	-686.44238	-514.66168	1170.6431	-507.62808	-471.39761	863.30023	-91.79969	-524.13678	936.12762	-90.579865	-573.54089	592.01044	240.64984	-662.85114	628.59833	234.13364
330	1.64	-446.98911	75.185699	-616.11322	-482.15903	84.109474	-578.33478	-304.89713	529.54443	-558.11481	-364.85736	514.52094	-486.98248	-312.73816	981.27661	-685.77783	-516.10046	1170.38	-506.7702	-474.44754	856.12433	-94.190178	-527.31012	928.55725	-93.032997	-581.16614	575.65314	228.73131	-670.79517	612.26996	221.8165
331	1.645	-446.93994	75.226746	-616.24567	-482.3287	84.108284	-578.2757	-305.72601	529.89832	-559.15649	-365.90762	514.75903	-488.01117	-311.6543	982.59607	-684.95966	-517.62817	1169.4901	-507.02893	-477.49393	849.11548	-97.319023	-530.70636	920.95178	-95.638557	-588.74023	559.46436	216.35368	-678.10419	596.25183	208.74232
332	1.65	-447.05737	75.073814	-616.37128	-481.92621	84.639	-577.74561	-306.50351	530.17902	-560.37012	-366.73099	515.19135	-488.61154	-310.4563	983.81451	-684.01874	-519.20123	1168.476	-507.50626	-479.75812	841.84216	-100.7058	-534.03595	913.12292	-98.479752	-596.13599	543.00854	203.17075	-684.63977	579.5871	194.78476
333	1.655	-447.08868	75.070801	-616.45197	-481.84586	84.35157	-578.35486	-307.3093	530.46259	-561.46082	-367.91626	515.48444	-489.85287	-309.07471	985.08075	-683.02283	-520.94434	1167.3048	-507.89462	-482.4183	834.5224	-104.31613	-537.45917	905.10962	-101.43245	-603.38879	526.80695	189.48601	-692.18085	563.57062	180.73128
334	1.66	-447.05624	75.004021	-616.58521	-482.09216	84.267952	-578.33069	-308.03329	530.65698	-562.60553	-368.54971	515.4964	-491.14252	-306.75754	986.64734	-682.38153	-522.73773	1166.0066	-508.40329	-485.20978	827.10712	-108.09155	-540.88654	897.03137	-104.52585	-610.40363	510.76175	175.43813	-699.02625	547.27496	165.78705
335	1.665	-447.03589	74.975288	-616.78845	-481.86948	83.969643	-579.06299	-308.55191	530.95306	-563.83453	-369.23865	515.71014	-492.29706	-305.30441	987.81683	-681.24072	-524.66949	1164.6831	-508.604	-487.56897	819.46185	-112.71754	-544.37903	888.70227	-107.79446	-617.42688	494.77533	160.88844	-705.81152	531.76971	151.05408
336	1.67	-446.97406	74.871124	-616.95142	-482.08002	84.039162	-578.94043	-308.97839	531.11841	-564.92706	-369.79816	515.29871	-494.41412	-303.48688	989.06409	-680.2782	-526.16565	1163.3132	-509.67926	-490.70718	811.5918	-116.81195	-547.9035	880.23755	-111.30634	-623.84229	479.10483	145.73856	-712.19037	516.11536	135.42487
337	1.675	-447.02875	74.676804	-617.05853	-481.81506	84.726929	-577.86359	-309.72488	531.10809	-565.87854	-370.63351	515.99847	-494.30847	-301.71613	990.25067	-679.32501	-527.86255	1161.8759	-510.2905	-493.76712	803.55109	-121.25845	-551.38599	871.47559	-115.14654	-630.1228	463.31268	129.94885	-718.43298	500.86807	119.73664
338	1.68	-446.97269	74.700317	-617.13373	-481.9335	84.312515	-578.42334	-310.04291	531.17041	-566.74695	-371.04932	515.65234	-496.33859	-299.93875	991.52466	-678.46893	-529.46594	1160.3838	-510.89722	-497.16714	795.25421	-126.07253	-555.09766	862.74658	-119.39526	-637.17218	447.86743	115.54784	-724.64496	485.94965	103.58693
339	1.685	-446.86816	74.618294	-617.28925	-481.71933	84.339165	-577.95123	-310.33917	531.19336	-567.57703	-371.69714	516.16003	-496.27997	-298.33508	992.59772	-677.53186	-531.11469	1159.0192	-511.05887	-500.20642	786.81122	-130.72363	-558.56055	853.94873	-123.79913	-641.53247	433.40457	97.828102	-730.2923	471.19205	87.283356
340	1.69	-446.84946	74.490479	-617.37341	-481.88831	84.048103	-579.88867	-310.44589	531.20044	-568.27039	-372.23422	516.15942	-497.12231	-296.69669	993.73431	-676.6734	-532.6322	1157.3638	-511.66986	-503.50333	778.37952	-135.97716	-562.38983	845.13293	-128.21274	-647.43915	418.3139	81.745186	-735.56866	456.53876	70.560867
341	1.695	-447.16733	74.156395	-617.00012	-481.78592	84.000435	-579.98419	-310.34262	531.20654	-568.91284	-372.58047	516.17767	-498.0108	-295.1965	994.70923	-675.81927	-533.82172	1155.2231	-513.31671	-506.9986	769.93481	-141.28172	-566.32001	836.33014	-132.48564	-653.01135	403.5455	65.427315	-740.64648	442.14172	53.60997
342	1.7	-446.72119	74.289375	-617.59033	-481.70883	83.912163	-580.0625	-310.24799	531.08276	-569.50757	-372.84396	516.1405	-498.88934	-293.90701	995.58862	-674.88751	-535.00165	1153.808	-513.43353	-510.4108	761.51349	-146.77425	-570.24103	827.16498	-137.28667	-657.22113	389.81931	48.008011	-745.32068	427.98022	36.331551
343	1.705	-446.8367	74.034157	-617.54639	-481.61646	83.955566	-580.28094	-310.02869	531.03455	-569.96448	-373.25497	516.13361	-499.6308	-292.6788	996.33765	-673.87329	-536.3089	1151.5884	-514.44373	-513.87421	753.24121	-152.39957	-574.04553	818.06738	-142.46606	-661.92395	376.05429	31.20421	-749.60608	414.02911	18.724035
344	1.71	-446.51627	74.18708	-617.82501	-481.5943	83.890633	-580.36096	-309.89648	530.90747	-570.36133	-373.44107	516.13043	-500.49686	-291.11005	997.22821	-673.04303	-538.02905	1150.3759	-513.25232	-517.31659	745.07806	-158.24336	-578.24518	809.19055	-148.15453	-665.70728	362.30371	13.38629	-753.71661	400.22827	0.70137244
345	1.715	-446.43771	74.053566	-617.95154	-481.53372	83.852013	-580.45306	-310.0881	530.42004	-570.54083	-373.67313	516.16199	-501.26981	-289.62875	998.02844	-672.20245	-538.46014	1148.1166	-515.09668	-520.65906	737.06122	-164.13185	-582.69427	800.2937	-153.81519	-668.91986	349.66666	-4.5477309	-757.41876	386.75357	-17.636736
346	1.72	-446.30002	74.055428	-618.08655	-481.59644	84.006393	-580.92261	-309.87485	530.32343	-570.85608	-373.98483	516.23676	-501.78009	-288.34741	998.69879	-671.19873	-539.83521	1145.9668	-515.46033	-524.09564	729.245	-170.15549	-587.14587	791.45654	-159.82843	-672.33728	336.8743	-22.306906	-760.79364	373.51868	-36.27351
